<svg xmlns="http://www.w3.org/2000/svg" viewBox="0 0 256 198">
  <path fill="#2496ED" d="M236.2 76.5c-3.4-2.3-7.8-3.4-13.4-3.4h-10.9c-2.2-11.8-10.8-18.1-18.7-21 0 0-9.9-3.3-20.3-.8-5.1-1.7-10.5-2.6-16.1-2.6-6.9 0-13.4 1.3-19.2 3.8-4.2-2.4-9.2-3.8-14.9-3.8-5.1 0-10 .9-14.6 2.6-5.6-5.8-13.1-9.1-22.9-9.1-2.1 0-4.2.2-6.2.5C72 15.7 86.7 6 104 6c11.1 0 20.9 4.1 28.5 11.9 5.9-1.3 12.2-2 19-2 14.8 0 27.8 4.3 39.1 12.8 10.1 7.4 17.6 17.3 22.6 29.7h9.6c11.7 0 20.9 2.5 27.5 7.4 6.7 4.9 10 11.7 10 20.5 0 7.4-2.3 13.4-6.8 18.1-3.8 4-9 6.9-15.5 8.8-1.3 8-4.8 15-10.4 20.9-6.4 6.9-15.2 11.7-26.5 14.5-10.3 2.5-22.1 3.8-35.4 3.8-11.2 0-21.4-1.1-30.5-3.2-7.9 13.4-21.3 20.1-40.3 20.1-18.2 0-32.1-6.4-41.5-19.3-8.4-11.5-11.8-26.8-10.2-45.9H41c-15.2 0-26.5-2.7-33.9-8.1C-0.2 103.2-3 95.1 1.4 83.9c3.7-9.8 12.1-14.8 25.3-14.8h13.2c3.2-7.7 8.3-14.1 15.1-19.3 7.5-5.7 16.2-8.5 26-8.5 2.6 0 5.2.2 7.7.6 6.7-7.6 15.7-11.4 27-11.4 7.5 0 14.3 1.6 20.4 4.8 6.7-2.6 14.1-4 22.3-4 9.2 0 17.6 1.6 25.3 4.8 10.1 3.9 18 9.7 23.7 17.4 3.8 5.2 6.4 11 7.9 17.5h14.9c6.5 0 11.5 1.1 14.9 3.5 3.3 2.3 5 5.6 5 10 0 4.1-1.7 7.2-5 9.4-3.3 2.3-7.8 3.4-13.5 3.4z"/>
</svg>
